<svg xmlns="http://www.w3.org/2000/svg" viewBox="0 0 640 430" width="640" height="430" font-family="ui-monospace,Menlo,monospace" font-size="12"><rect x="0" y="0" width="640" height="430" fill="#1a1b26"/><text x="320" y="20" fill="#c0caf5" text-anchor="middle" dominant-baseline="central">Where the structures sit, and the law that earns each step</text><defs><marker id="arrow" viewBox="0 0 10 10" refX="9" refY="5" markerWidth="6" markerHeight="6" orient="auto-start-reverse"><path d="M 0 0 L 10 5 L 0 10 z" fill="#565f89"/></marker></defs><line x1="320" y1="73" x2="150" y2="143" stroke="#565f89" stroke-width="2" marker-end="url(#arrow)"/><text x="195" y="98" fill="#9ece6a" text-anchor="middle" dominant-baseline="central">associativity</text><line x1="150" y1="177" x2="150" y2="239" stroke="#565f89" stroke-width="2" marker-end="url(#arrow)"/><text x="216" y="199" fill="#9ece6a" text-anchor="middle" dominant-baseline="central">identity</text><line x1="150" y1="273" x2="320" y2="349" stroke="#565f89" stroke-width="2" marker-end="url(#arrow)"/><text x="276" y="300" fill="#9ece6a" text-anchor="middle" dominant-baseline="central">inverses</text><line x1="320" y1="73" x2="490" y2="143" stroke="#565f89" stroke-width="2" marker-end="url(#arrow)"/><text x="446" y="98" fill="#9ece6a" text-anchor="middle" dominant-baseline="central">unique division</text><line x1="490" y1="177" x2="490" y2="239" stroke="#565f89" stroke-width="2" marker-end="url(#arrow)"/><text x="556" y="199" fill="#9ece6a" text-anchor="middle" dominant-baseline="central">identity</text><line x1="490" y1="273" x2="320" y2="349" stroke="#565f89" stroke-width="2" marker-end="url(#arrow)"/><text x="365" y="300" fill="#9ece6a" text-anchor="middle" dominant-baseline="central">associativity</text><rect x="258" y="39" width="124" height="34" fill="#2a2e42"/><rect x="258" y="39" width="124" height="34" fill="none" stroke-width="3" stroke="#7aa2f7"/><text x="320" y="56" fill="#c0caf5" text-anchor="middle" dominant-baseline="central">magma</text><rect x="88" y="143" width="124" height="34" fill="#2a2e42"/><rect x="88" y="143" width="124" height="34" fill="none" stroke-width="3" stroke="#f7768e"/><text x="150" y="160" fill="#c0caf5" text-anchor="middle" dominant-baseline="central">semigroup</text><rect x="88" y="239" width="124" height="34" fill="#2a2e42"/><rect x="88" y="239" width="124" height="34" fill="none" stroke-width="3" stroke="#9ece6a"/><text x="150" y="256" fill="#c0caf5" text-anchor="middle" dominant-baseline="central">monoid</text><rect x="428" y="143" width="124" height="34" fill="#2a2e42"/><rect x="428" y="143" width="124" height="34" fill="none" stroke-width="3" stroke="#e0af68"/><text x="490" y="160" fill="#c0caf5" text-anchor="middle" dominant-baseline="central">quasigroup</text><rect x="428" y="239" width="124" height="34" fill="#2a2e42"/><rect x="428" y="239" width="124" height="34" fill="none" stroke-width="3" stroke="#bb9af7"/><text x="490" y="256" fill="#c0caf5" text-anchor="middle" dominant-baseline="central">loop</text><rect x="258" y="349" width="124" height="34" fill="#2a2e42"/><rect x="258" y="349" width="124" height="34" fill="none" stroke-width="3" stroke="#7dcfff"/><text x="320" y="366" fill="#c0caf5" text-anchor="middle" dominant-baseline="central">group</text><text x="320" y="414" fill="#565f89" text-anchor="middle" dominant-baseline="central">commutative and idempotent decorate any node: properties, not rungs</text></svg>